<svg width="353.608935546875px" height="129.2px" xmlns="http://www.w3.org/2000/svg" viewBox="73.1955322265625 10.400000000000006 353.608935546875 129.2" style="background: rgba(0, 0, 0, 0);" preserveAspectRatio="xMidYMid"><defs><linearGradient id="editing-gradient-gradient" x1="0" x2="1" y1="0.5" y2="0.5" gradientUnits="objectBoundingBox"><stop offset="0" stop-color="#f0f"></stop><stop offset="1" stop-color="#0ff"></stop></linearGradient></defs><g><g transform="translate(129.07364988327026, 99.73500061035156)"><path d="M33.79-16.06L33.79-16.06L33.79-16.06Q40-15.87 40.35-15.87L40.35-15.87L40.35-15.87Q40.70-15.87 40.77-15.87L40.77-15.87L40.77-15.87Q42.30-16 42.30-15.42L42.30-15.42L42.30-15.42Q42.30-14.53 39.81-14.53L39.81-14.53L34.37-14.66L34.37-14.66Q32.70-14.53 32.38-14.34L32.38-14.34L32.38-14.34Q29.70-11.01 25.15-4.70L25.15-4.70L25.15-4.70Q20.61 1.60 20.61 2.82L20.61 2.82L20.61 2.82Q20.61 3.33 21.76 2.56L21.76 2.56L21.76 2.56Q22.46 2.56 22.46 2.75L22.46 2.75L22.46 2.75Q22.46 3.07 21.06 3.71L21.06 3.71L19.26 4.67L19.26 4.67Q18.05 5.70 16.48 5.70L16.48 5.70L16.48 5.70Q14.91 5.70 15.04 4.93L15.04 4.93L15.04 4.93Q15.10 3.39 19.58-2.85L19.58-2.85L19.58-2.85Q24.06-9.09 28.86-14.72L28.86-14.72L28.86-14.72Q24.26-13.89 21.82-13.89L21.82-13.89L21.82-13.89Q21.57-13.95 21.57-14.30L21.57-14.30L21.57-14.30Q21.57-14.66 22.34-15.30L22.34-15.30L22.34-15.30Q23.10-15.94 23.97-15.94L23.97-15.94L23.97-15.94Q24.83-15.94 26.75-16L26.75-16L30.02-16L30.02-16Q32.19-18.94 39.68-29.57L39.68-29.57L39.68-29.57Q42.75-33.98 42.75-36.86L42.75-36.86L42.75-36.86Q42.75-41.34 36.10-41.34L36.10-41.34L36.10-41.34Q30.91-41.34 23.90-38.46L23.90-38.46L23.90-38.46Q16.90-35.58 11.01-30.59L11.01-30.59L11.01-30.59Q6.85-27.14 4.42-23.10L4.42-23.10L4.42-23.10Q1.98-19.07 1.98-15.94L1.98-15.94L1.98-15.94Q1.98-10.88 8-10.88L8-10.88L8-10.88Q8.51-10.88 9.09-10.94L9.09-10.94L9.09-10.94Q12.99-11.26 16.48-15.39L16.48-15.39L16.48-15.39Q19.97-19.52 19.97-22.34L19.97-22.34L19.97-22.34Q19.97-22.59 19.90-22.91L19.90-22.91L19.90-22.91Q21.57-22.59 21.57-20.93L21.57-20.93L21.57-20.93Q21.57-18.18 17.98-14.46L17.98-14.46L17.98-14.46Q13.12-9.41 6.72-9.41L6.72-9.41L6.72-9.41Q3.20-9.41 1.22-11.26L1.22-11.26L1.22-11.26Q-0.77-13.12-0.77-16.32L-0.77-16.32L-0.77-16.32Q-0.77-23.87 8.45-31.55L8.45-31.55L8.45-31.55Q15.10-36.99 22.59-39.78L22.59-39.78L22.59-39.78Q30.08-42.56 35.62-42.56L35.62-42.56L35.62-42.56Q41.15-42.56 43.87-40.96L43.87-40.96L43.87-40.96Q46.59-39.36 46.59-36.51L46.59-36.51L46.59-36.51Q46.59-33.66 44.10-30.08L44.10-30.08L44.10-30.08Q42.62-27.71 33.79-16.06ZM54.34-26.11L54.34-26.11Q55.30-26.11 56.16-25.50L56.16-25.50L56.16-25.50Q57.02-24.90 57.02-24.06L57.02-24.06L57.02-24.06Q57.02-23.23 56.22-22.62L56.22-22.62L56.22-22.62Q55.42-22.02 54.46-22.02L54.46-22.02L54.46-22.02Q53.50-22.02 52.70-22.72L52.70-22.72L52.70-22.72Q51.90-23.42 51.90-24.32L51.90-24.32L51.90-24.32Q51.90-26.11 54.34-26.11L54.34-26.11ZM42.75 0.70L42.75 0.70L42.75 0.70Q39.49 0.70 39.49-3.52L39.49-3.52L39.49-3.52Q39.49-6.98 43.26-13.09L43.26-13.09L43.26-13.09Q47.04-19.20 49.34-19.26L49.34-19.26L49.34-19.26Q49.98-19.26 50.78-18.75L50.78-18.75L50.78-18.75Q51.58-18.24 51.58-17.73L51.58-17.73L51.58-17.73Q51.26-17.28 50.82-16.74L50.82-16.74L50.82-16.74Q50.37-16.19 49.86-15.55L49.86-15.55L49.86-15.55Q49.34-14.91 48.45-13.73L48.45-13.73L48.45-13.73Q47.55-12.54 46.72-11.46L46.72-11.46L46.72-11.46Q41.92-5.25 41.92-2.91L41.92-2.91L41.92-2.91Q41.92-0.58 43.52-0.58L43.52-0.58L43.52-0.58Q44.86-0.58 47.17-2.05L47.17-2.05L47.17-2.05Q52.54-5.38 55.68-9.34L55.68-9.34L55.68-9.34Q56.83-10.82 57.25-10.82L57.25-10.82L57.25-10.82Q57.66-10.82 57.66-10.30L57.66-10.30L57.66-10.30Q57.66-9.79 56.19-8.26L56.19-8.26L56.19-8.26Q54.72-6.72 53.86-5.82L53.86-5.82L53.86-5.82Q52.99-4.93 52.67-4.64L52.67-4.64L52.67-4.64Q52.35-4.35 51.49-3.55L51.49-3.55L51.49-3.55Q50.62-2.75 50.18-2.43L50.18-2.43L50.18-2.43Q49.73-2.11 48.90-1.47L48.90-1.47L48.90-1.47Q48.06-0.83 47.42-0.54L47.42-0.54L47.42-0.54Q46.78-0.26 45.95 0.13L45.95 0.13L45.95 0.13Q44.61 0.70 42.75 0.70ZM65.22-20.22L65.22-20.22L65.22-20.22Q66.94-20.22 66.94-18.88L66.94-18.88L66.94-18.88Q66.94-18.50 66.75-18.11L66.75-18.11L66.75-18.11Q60.99-10.11 59.84-6.02L59.84-6.02L59.84-6.02Q74.75-20.93 77.95-20.93L77.95-20.93L77.95-20.93Q78.27-20.99 78.53-20.99L78.53-20.99L78.53-20.99Q80.32-20.99 80.32-19.39L80.32-19.39L80.32-19.39Q80.32-19.07 80.19-18.75L80.19-18.75L80.19-18.75Q80.06-18.43 77.63-15.30L77.63-15.30L77.63-15.30Q74.82-11.97 72.86-8.90L72.86-8.90L72.86-8.90Q70.91-5.82 70.91-3.78L70.91-3.78L70.91-3.78Q70.91-1.73 71.81-1.73L71.81-1.73L71.81-1.73Q74.62-1.73 81.60-9.47L81.60-9.47L81.60-9.47Q81.73-9.60 82.05-10.05L82.05-10.05L82.05-10.05Q83.01-11.20 83.20-11.20L83.20-11.20L83.20-11.20Q83.39-11.20 83.39-10.56L83.39-10.56L83.39-10.56Q83.39-9.92 82.50-8.90L82.50-8.90L82.50-8.90Q74.56 0.13 71.23 0.13L71.23 0.13L71.23 0.13Q68.10 0.13 68.10-3.33L68.10-3.33L68.10-3.33Q68.10-6.78 70.66-11.26L70.66-11.26L74.75-17.92L74.75-17.92Q70.40-14.72 67.01-10.91L67.01-10.91L67.01-10.91Q63.62-7.10 60.83-3.52L60.83-3.52L60.83-3.52Q58.05 0.06 57.60 0.06L57.60 0.06L57.60 0.06Q56.64 0.06 56.10-0.74L56.10-0.74L56.10-0.74Q55.55-1.54 55.55-2.72L55.55-2.72L55.55-2.72Q55.55-3.90 56.38-5.89L56.38-5.89L56.38-5.89Q57.22-7.87 58.50-10.69L58.50-10.69L54.66-6.66L54.66-6.66Q53.25-5.25 52.90-5.25L52.90-5.25L52.90-5.25Q52.54-5.25 52.54-5.66L52.54-5.66L52.54-5.66Q52.54-6.08 53.06-6.59L53.06-6.59L53.06-6.59Q55.42-8.96 57.15-11.14L57.15-11.14L57.15-11.14Q58.82-13.31 64-19.46L64-19.46L64-19.46Q64.58-20.22 65.22-20.22ZM91.01-20.22L91.01-20.22L91.01-20.22Q92.74-20.22 92.74-18.88L92.74-18.88L92.74-18.88Q92.74-18.50 92.54-18.11L92.54-18.11L92.54-18.11Q86.78-10.11 85.63-6.02L85.63-6.02L85.63-6.02Q100.54-20.93 103.74-20.93L103.74-20.93L103.74-20.93Q104.06-20.99 104.32-20.99L104.32-20.99L104.32-20.99Q106.11-20.99 106.11-19.39L106.11-19.39L106.11-19.39Q106.11-19.07 105.98-18.75L105.98-18.75L105.98-18.75Q105.86-18.43 103.42-15.30L103.42-15.30L103.42-15.30Q100.61-11.97 98.66-8.90L98.66-8.90L98.66-8.90Q96.70-5.82 96.70-3.78L96.70-3.78L96.70-3.78Q96.70-1.73 97.60-1.73L97.60-1.73L97.60-1.73Q100.42-1.73 107.39-9.47L107.39-9.47L107.39-9.47Q107.52-9.60 107.84-10.05L107.84-10.05L107.84-10.05Q108.80-11.20 108.99-11.20L108.99-11.20L108.99-11.20Q109.18-11.20 109.18-10.56L109.18-10.56L109.18-10.56Q109.18-9.92 108.29-8.90L108.29-8.90L108.29-8.90Q100.35 0.13 97.02 0.13L97.02 0.13L97.02 0.13Q93.89 0.13 93.89-3.33L93.89-3.33L93.89-3.33Q93.89-6.78 96.45-11.26L96.45-11.26L100.54-17.92L100.54-17.92Q96.19-14.72 92.80-10.91L92.80-10.91L92.80-10.91Q89.41-7.10 86.62-3.52L86.62-3.52L86.62-3.52Q83.84 0.06 83.39 0.06L83.39 0.06L83.39 0.06Q82.43 0.06 81.89-0.74L81.89-0.74L81.89-0.74Q81.34-1.54 81.34-2.72L81.34-2.72L81.34-2.72Q81.34-3.90 82.18-5.89L82.18-5.89L82.18-5.89Q83.01-7.87 84.29-10.69L84.29-10.69L80.45-6.66L80.45-6.66Q79.04-5.25 78.69-5.25L78.69-5.25L78.69-5.25Q78.34-5.25 78.34-5.66L78.34-5.66L78.34-5.66Q78.34-6.08 78.85-6.59L78.85-6.59L78.85-6.59Q81.22-8.96 82.94-11.14L82.94-11.14L82.94-11.14Q84.61-13.31 89.79-19.46L89.79-19.46L89.79-19.46Q90.37-20.22 91.01-20.22ZM183.04-28.61L183.04-28.61L183.04-28.61Q183.04-25.34 179.78-21.44L179.78-21.44L179.78-21.44Q176.51-17.54 169.89-15.10L169.89-15.10L169.89-15.10Q163.26-12.67 157.02-12.67L157.02-12.67L157.02-12.67Q150.78-12.67 147.14-14.27L147.14-14.27L147.14-14.27Q139.07-2.43 136.64 0L136.64 0L136.64 0Q129.73 6.91 120.13 6.91L120.13 6.91L120.13 6.91Q114.69 6.91 111.97 4.38L111.97 4.38L111.97 4.38Q109.25 1.86 109.25-2.18L109.25-2.18L109.25-2.18Q109.25-7.74 113.73-12.67L113.73-12.67L113.73-12.67Q118.66-18.11 126.14-18.11L126.14-18.11L126.14-18.11Q129.22-18.11 131.33-16.70L131.33-16.70L131.33-16.70Q133.44-15.30 133.44-12.42L133.44-12.42L133.44-12.42Q133.44-10.50 131.26-7.81L131.26-7.81L131.26-7.81Q129.09-5.12 128.58-5.12L128.58-5.12L128.58-5.12Q128.45-5.12 128.45-5.38L128.45-5.38L128.45-5.38Q128.45-5.63 128.64-5.89L128.64-5.89L128.64-5.89Q130.69-8.90 130.69-11.42L130.69-11.42L130.69-11.42Q130.69-13.95 129.12-15.33L129.12-15.33L129.12-15.33Q127.55-16.70 125.25-16.70L125.25-16.70L125.25-16.70Q119.87-16.70 115.74-11.81L115.74-11.81L115.74-11.81Q111.62-6.91 111.62-1.92L111.62-1.92L111.62-1.92Q111.62 1.28 113.63 3.26L113.63 3.26L113.63 3.26Q115.65 5.25 119.87 5.25L119.87 5.25L119.87 5.25Q127.74 5.25 133.38-0.06L133.38-0.06L133.38-0.06Q136.64-3.14 139.97-9.02L139.97-9.02L145.54-19.07L145.54-19.07Q149.63-25.66 155.07-38.66L155.07-38.66L155.07-38.66Q154.50-38.66 153.92-38.66L153.92-38.66L153.92-38.66Q145.28-38.66 136.58-36.77L136.58-36.77L136.58-36.77Q127.87-34.88 123.39-31.36L123.39-31.36L123.39-31.36Q121.47-29.89 121.47-28.48L121.47-28.48L121.47-28.48Q121.47-27.07 122.98-26.21L122.98-26.21L122.98-26.21Q124.48-25.34 126.53-25.34L126.53-25.34L126.53-25.34Q128.58-25.34 131.62-26.14L131.62-26.14L131.62-26.14Q134.66-26.94 136.19-28.29L136.19-28.29L136.19-28.29Q136.83-28.80 137.09-28.80L137.09-28.80L137.09-28.80Q137.60-28.80 137.28-28.29L137.28-28.29L137.28-28.29Q134.98-25.60 130.30-24.26L130.30-24.26L130.30-24.26Q127.42-23.42 124.61-23.42L124.61-23.42L124.61-23.42Q121.79-23.42 120.00-24.67L120.00-24.67L120.00-24.67Q118.21-25.92 118.21-28.06L118.21-28.06L118.21-28.06Q118.21-30.21 120.51-32.38L120.51-32.38L120.51-32.38Q124.86-36.61 136.06-38.66L136.06-38.66L136.06-38.66Q144-40.06 154.30-40.06L154.30-40.06L154.30-40.06Q155.14-40.06 156.03-40.06L156.03-40.06L156.03-40.06Q157.44-41.28 158.59-41.28L158.59-41.28L158.59-41.28Q159.74-41.28 159.74-40.38L159.74-40.38L159.74-40.38Q159.74-40.19 159.68-39.94L159.68-39.94L159.68-39.94Q169.60-39.23 175.74-36.61L175.74-36.61L175.74-36.61Q183.04-33.54 183.04-28.61ZM180.03-29.25L180.03-29.25L180.03-29.25Q180.03-33.28 173.50-35.84L173.50-35.84L173.50-35.84Q167.81-38.08 159.23-38.53L159.23-38.53L157.18-32.13L157.18-32.13Q154.75-26.11 147.84-15.36L147.84-15.36L147.84-15.36Q148.48-15.04 150.02-14.66L150.02-14.66L150.02-14.66Q152.58-14.21 153.98-14.21L153.98-14.21L153.98-14.21Q158.85-14.21 165.18-16.22L165.18-16.22L165.18-16.22Q171.52-18.24 175.78-22.11L175.78-22.11L175.78-22.11Q180.03-25.98 180.03-29.25ZM176.64-3.20L176.64-3.20L176.64-3.20Q176.64-1.28 178.75-1.28L178.75-1.28L178.75-1.28Q180.86-1.28 184.19-3.52L184.19-3.52L184.19-3.52Q187.52-5.76 190.66-9.60L190.66-9.60L190.66-9.60Q191.42-10.62 191.87-10.62L191.87-10.62L191.87-10.62Q192.32-10.62 192.32-10.24L192.32-10.24L192.32-10.24Q192.32-9.86 189.70-6.91L189.70-6.91L189.70-6.91Q183.30 0.13 179.01 0.13L179.01 0.13L179.01 0.13Q176.90 0.13 175.42-0.86L175.42-0.86L175.42-0.86Q173.95-1.86 173.95-3.94L173.95-3.94L173.95-3.94Q173.95-6.02 175.04-8.77L175.04-8.77L175.04-8.77Q176.90-13.12 180.99-19.71L180.99-19.71L180.99-19.71Q188.48-31.87 191.62-31.87L191.62-31.87L191.62-31.87Q192.26-31.87 192.93-31.39L192.93-31.39L192.93-31.39Q193.60-30.91 193.66-30.34L193.66-30.34L193.66-30.34Q192.19-28.35 188-22.72L188-22.72L188-22.72Q183.81-17.09 182.21-14.62L182.21-14.62L182.21-14.62Q180.61-12.16 179.81-10.94L179.81-10.94L179.81-10.94Q179.01-9.73 178.62-9.06L178.62-9.06L178.62-9.06Q178.24-8.38 177.73-7.30L177.73-7.30L177.73-7.30Q176.64-5.12 176.64-3.20ZM210.94-19.14L210.94-19.14L211.84-19.33L211.84-19.33Q212.54-19.33 213.18-18.75L213.18-18.75L213.18-18.75Q213.82-18.18 213.82-17.86L213.82-17.86L213.82-17.86Q213.82-17.54 209.86-11.68L209.86-11.68L209.86-11.68Q205.89-5.82 205.89-3.52L205.89-3.52L205.89-3.52Q205.89-3.33 205.95-3.14L205.95-3.14L205.95-3.14Q206.27-1.66 207.36-1.66L207.36-1.66L207.36-1.66Q210.69-1.66 219.52-12.67L219.52-12.67L219.52-12.67Q219.71-12.93 219.97-12.93L219.97-12.93L219.97-12.93Q220.22-12.93 220.22-12.45L220.22-12.45L220.22-12.45Q220.22-11.97 219.65-11.20L219.65-11.20L219.65-11.20Q211.46-0.26 207.17-0.26L207.17-0.26L207.17-0.26Q206.59-0.26 206.08-0.45L206.08-0.45L206.08-0.45Q203.26-1.54 203.26-4.67L203.26-4.67L203.26-4.67Q203.26-5.76 203.52-6.85L203.52-6.85L199.55-3.01L199.55-3.01Q195.78 0.32 194.08 0.32L194.08 0.32L194.08 0.32Q192.38 0.32 190.85-0.77L190.85-0.77L190.85-0.77Q189.12-2.05 189.12-4.16L189.12-4.16L189.12-4.16Q189.12-8.83 195.65-15.33L195.65-15.33L195.65-15.33Q202.18-21.82 207.62-21.82L207.62-21.82L207.62-21.82Q209.73-21.82 210.43-20.35L210.43-20.35L210.43-20.35Q210.62-19.84 210.75-19.49L210.75-19.49L210.75-19.49Q210.88-19.14 210.94-19.14ZM191.81-3.39L191.81-3.39L191.81-3.39Q191.81-1.09 193.41-1.09L193.41-1.09L193.41-1.09Q197.12-1.09 203.52-9.22L203.52-9.22L210.30-18.56L210.30-18.56Q209.79-19.46 208.64-19.46L208.64-19.46L208.64-19.46Q204.74-19.46 198.27-13.41L198.27-13.41L198.27-13.41Q191.81-7.36 191.81-3.39ZM226.37-20.22L226.37-20.22L226.37-20.22Q228.10-20.22 228.10-18.88L228.10-18.88L228.10-18.88Q228.10-18.50 227.90-18.11L227.90-18.11L227.90-18.11Q222.14-10.11 220.99-6.02L220.99-6.02L220.99-6.02Q235.90-20.93 239.10-20.93L239.10-20.93L239.10-20.93Q239.42-20.99 239.68-20.99L239.68-20.99L239.68-20.99Q241.47-20.99 241.47-19.39L241.47-19.39L241.47-19.39Q241.47-19.07 241.34-18.75L241.34-18.75L241.34-18.75Q241.22-18.43 238.78-15.30L238.78-15.30L238.78-15.30Q235.97-11.97 234.02-8.90L234.02-8.90L234.02-8.90Q232.06-5.82 232.06-3.78L232.06-3.78L232.06-3.78Q232.06-1.73 232.96-1.73L232.96-1.73L232.96-1.73Q235.78-1.73 242.75-9.47L242.75-9.47L242.75-9.47Q242.88-9.60 243.20-10.05L243.20-10.05L243.20-10.05Q244.16-11.20 244.35-11.20L244.35-11.20L244.35-11.20Q244.54-11.20 244.54-10.56L244.54-10.56L244.54-10.56Q244.54-9.92 243.65-8.90L243.65-8.90L243.65-8.90Q235.71 0.13 232.38 0.13L232.38 0.13L232.38 0.13Q229.25 0.13 229.25-3.33L229.25-3.33L229.25-3.33Q229.25-6.78 231.81-11.26L231.81-11.26L235.90-17.92L235.90-17.92Q231.55-14.72 228.16-10.91L228.16-10.91L228.16-10.91Q224.77-7.10 221.98-3.52L221.98-3.52L221.98-3.52Q219.20 0.06 218.75 0.06L218.75 0.06L218.75 0.06Q217.79 0.06 217.25-0.74L217.25-0.74L217.25-0.74Q216.70-1.54 216.70-2.72L216.70-2.72L216.70-2.72Q216.70-3.90 217.54-5.89L217.54-5.89L217.54-5.89Q218.37-7.87 219.65-10.69L219.65-10.69L215.81-6.66L215.81-6.66Q214.40-5.25 214.05-5.25L214.05-5.25L214.05-5.25Q213.70-5.25 213.70-5.66L213.70-5.66L213.70-5.66Q213.70-6.08 214.21-6.59L214.21-6.59L214.21-6.59Q216.58-8.96 218.30-11.14L218.30-11.14L218.30-11.14Q219.97-13.31 225.15-19.46L225.15-19.46L225.15-19.46Q225.73-20.22 226.37-20.22Z" fill="url(#editing-gradient-gradient)"></path></g></g><style>text {
  font-size: 64px;
  font-family: Arial Black;
  dominant-baseline: central;
  text-anchor: middle;
}</style></svg>